{
  "source": "C:\\Users\\Peter\\Desktop\\stuff\\MIUN\\quantitative_research\\video_compression\\videos\\BVI-HD\\BVI-HD_CDVL_videos\\ORIG\\PlasmaAveragePan_1920x1080_60fps.mp4",
  "output": "C:\\Users\\Peter\\Desktop\\stuff\\MIUN\\quantitative_research\\video_compression\\compressed_videos\\BVI-HD\\hevc\\2\\PlasmaAveragePan_1920x1080_60fps_hevc.mp4",
  "codec": "hevc",
  "ok": "Input #0, mov,mp4,m4a,3gp,3g2,mj2, from 'C:\\Users\\Peter\\Desktop\\stuff\\MIUN\\quantitative_research\\video_compression\\videos\\BVI-HD\\BVI-HD_CDVL_videos\\ORIG\\PlasmaAveragePan_1920x1080_60fps.mp4':\n  Metadata:\n    major_brand     : isom\n    minor_version   : 512\n    compatible_brands: isomiso2avc1mp41\n    encoder         : Lavf54.28.101\n  Duration: 00:00:05.00, start: 0.000000, bitrate: 73730 kb/s\n  Stream #0:0[0x1](und): Video: h264 (High 4:4:4 Predictive) (avc1 / 0x31637661), yuv420p(progressive), 1920x1080, 73727 kb/s, 60 fps, 60 tbr, 60 tbn (default)\n    Metadata:\n      handler_name    : VideoHandler\n      vendor_id       : [0][0][0][0]\n[out#0/mp4 @ 000002ceedc17900] Codec AVOption b:a (set bitrate (in bits/s)) has not been used for any stream. The most likely reason is either wrong type (e.g. a video option with no video streams) or that it is a private option of some decoder which was not actually used for any stream.\nStream mapping:\n  Stream #0:0 -> #0:0 (h264 (native) -> hevc (libx265))\nPress [q] to stop, [?] for help\n[libx265 @ 000002ceedb02c00] Unknown option: \"aq-mode.\nx265 [info]: HEVC encoder version 4.1+190-8f11c33ac\nx265 [info]: build info [Windows][GCC 15.1.0][64 bit] 10bit\nx265 [info]: using cpu capabilities: MMX2 SSE2Fast LZCNT SSSE3 SSE4.2 AVX FMA3 BMI2 AVX2\nx265 [info]: Main 10 profile, Level-4.1 (Main tier)\nx265 [info]: Thread pool created using 12 threads\nx265 [info]: Slices                              : 1\nx265 [info]: frame threads / pool features       : 3 / wpp(17 rows)\nx265 [info]: Coding QT: max CU size, min CU size : 64 / 8\nx265 [info]: Residual QT: max TU size, max depth : 32 / 1 inter / 1 intra\nx265 [info]: ME / range / subpel / merge         : star / 57 / 3 / 3\nx265 [info]: Keyframe min / max / scenecut / bias  : 25 / 250 / 40 / 5.00 \nx265 [info]: Lookahead / bframes / badapt        : 25 / 4 / 2\nx265 [info]: b-pyramid / weightp / weightb       : 1 / 1 / 0\nx265 [info]: References / ref-limit  cu / depth  : 4 / on / on\nx265 [info]: AQ: mode / str / qg-size / cu-tree  : 2 / 1.0 / 32 / 1\nx265 [info]: Rate Control / qCompress            : ABR-2000 kbps / 0.60\nx265 [info]: VBV/HRD buffer / max-rate / init    : 2000 / 2000 / 0.750\nx265 [info]: tools: rect limit-modes rd=4 psy-rd=2.00 rdoq=2 psy-rdoq=1.00\nx265 [info]: tools: rskip mode=1 signhide tmvp strong-intra-smoothing lslices=4\nx265 [info]: tools: deblock sao dhdr10-info\nOutput #0, mp4, to 'C:\\Users\\Peter\\Desktop\\stuff\\MIUN\\quantitative_research\\video_compression\\compressed_videos\\BVI-HD\\hevc\\2\\PlasmaAveragePan_1920x1080_60fps_hevc.mp4':\n  Metadata:\n    major_brand     : isom\n    minor_version   : 512\n    compatible_brands: isomiso2avc1mp41\n    encoder         : Lavf62.3.100\n  Stream #0:0(und): Video: hevc (hev1 / 0x31766568), yuv420p10le(tv, progressive), 1920x1080, q=2-31, 2000 kb/s, 60 fps, 15360 tbn (default)\n    Metadata:\n      encoder         : Lavc62.11.100 libx265\n      handler_name    : VideoHandler\n      vendor_id       : [0][0][0][0]\n    Side data:\n      cpb: bitrate max/min/avg: 2000000/0/2000000 buffer size: 2000000 vbv_delay: N/A\nframe=    0 fps=0.0 q=0.0 size=       0KiB time=N/A bitrate=N/A speed=N/A elapsed=0:00:00.52    \nframe=    0 fps=0.0 q=0.0 size=       0KiB time=N/A bitrate=N/A speed=N/A elapsed=0:00:01.05    \nframe=    0 fps=0.0 q=0.0 size=       0KiB time=N/A bitrate=N/A speed=N/A elapsed=0:00:01.58    \nframe=    0 fps=0.0 q=0.0 size=       0KiB time=N/A bitrate=N/A speed=N/A elapsed=0:00:02.09    \nframe=    0 fps=0.0 q=0.0 size=       0KiB time=N/A bitrate=N/A speed=N/A elapsed=0:00:02.62    \nframe=    0 fps=0.0 q=0.0 size=       0KiB time=N/A bitrate=N/A speed=N/A elapsed=0:00:03.15    \nframe=    1 fps=0.3 q=41.9 size=       0KiB time=-00:00:00.01 bitrate=N/A speed=N/A elapsed=0:00:03.66    \nframe=    1 fps=0.2 q=41.9 size=       0KiB time=-00:00:00.01 bitrate=N/A speed=N/A elapsed=0:00:04.19    \nframe=    2 fps=0.4 q=49.9 size=       0KiB time=00:00:00.00 bitrate=N/A speed=   0x elapsed=0:00:04.69    \nframe=    3 fps=0.6 q=50.5 size=       0KiB time=00:00:00.01 bitrate=  21.1kbits/s speed=0.00319x elapsed=0:00:05.21    \nframe=    4 fps=0.7 q=46.5 size=       0KiB time=00:00:00.03 bitrate=  10.6kbits/s speed=0.00581x elapsed=0:00:05.74    \nframe=    4 fps=0.6 q=46.5 size=       0KiB time=00:00:00.03 bitrate=  10.6kbits/s speed=0.00533x elapsed=0:00:06.25    \nframe=    5 fps=0.7 q=46.4 size=       0KiB time=00:00:00.05 bitrate=   7.0kbits/s speed=0.00738x elapsed=0:00:06.77    \nframe=    6 fps=0.8 q=45.8 size=       0KiB time=00:00:00.06 bitrate=   5.3kbits/s speed=0.00913x elapsed=0:00:07.29    \nframe=    7 fps=0.9 q=42.4 size=       0KiB time=00:00:00.08 bitrate=   4.2kbits/s speed=0.0106x elapsed=0:00:07.83    \nframe=    8 fps=1.0 q=43.4 size=       0KiB time=00:00:00.10 bitrate=   3.5kbits/s speed=0.012x elapsed=0:00:08.35    \nframe=    9 fps=1.0 q=40.4 size=       0KiB time=00:00:00.11 bitrate=   3.0kbits/s speed=0.0132x elapsed=0:00:08.86    \nframe=    9 fps=1.0 q=40.4 size=       0KiB time=00:00:00.11 bitrate=   3.0kbits/s speed=0.0124x elapsed=0:00:09.39    \nframe=   10 fps=1.0 q=41.1 size=       0KiB time=00:00:00.13 bitrate=   2.6kbits/s speed=0.0134x elapsed=0:00:09.92    \nframe=   11 fps=1.1 q=38.4 size=       0KiB time=00:00:00.15 bitrate=   2.3kbits/s speed=0.0144x elapsed=0:00:10.44    \nframe=   11 fps=1.0 q=38.4 size=       0KiB time=00:00:00.15 bitrate=   2.3kbits/s speed=0.0137x elapsed=0:00:10.95    \nframe=   12 fps=1.0 q=41.0 size=       0KiB time=00:00:00.16 bitrate=   2.1kbits/s speed=0.0145x elapsed=0:00:11.46    \nframe=   12 fps=1.0 q=41.0 size=       0KiB time=00:00:00.16 bitrate=   2.1kbits/s speed=0.0139x elapsed=0:00:11.98    \nframe=   13 fps=1.0 q=41.2 size=       0KiB time=00:00:00.18 bitrate=   1.9kbits/s speed=0.0147x elapsed=0:00:12.49    \nframe=   14 fps=1.1 q=41.2 size=       0KiB time=00:00:00.20 bitrate=   1.8kbits/s speed=0.0154x elapsed=0:00:13.01    \nframe=   15 fps=1.1 q=38.7 size=       0KiB time=00:00:00.21 bitrate=   1.6kbits/s speed=0.016x elapsed=0:00:13.53    \nframe=   15 fps=1.1 q=38.7 size=       0KiB time=00:00:00.21 bitrate=   1.6kbits/s speed=0.0154x elapsed=0:00:14.04    \nframe=   16 fps=1.1 q=39.9 size=       0KiB time=00:00:00.23 bitrate=   1.5kbits/s speed=0.016x elapsed=0:00:14.56    \nframe=   17 fps=1.1 q=41.1 size=       0KiB time=00:00:00.25 bitrate=   1.4kbits/s speed=0.0166x elapsed=0:00:15.09    \nframe=   18 fps=1.2 q=37.7 size=       0KiB time=00:00:00.26 bitrate=   1.3kbits/s speed=0.0171x elapsed=0:00:15.60    \nframe=   18 fps=1.1 q=37.7 size=       0KiB time=00:00:00.26 bitrate=   1.3kbits/s speed=0.0165x elapsed=0:00:16.12    \nframe=   18 fps=1.1 q=37.7 size=       0KiB time=00:00:00.26 bitrate=   1.3kbits/s speed=0.016x elapsed=0:00:16.64    \nframe=   19 fps=1.1 q=39.8 size=       0KiB time=00:00:00.28 bitrate=   1.2kbits/s speed=0.0165x elapsed=0:00:17.15    \nframe=   20 fps=1.1 q=40.1 size=       0KiB time=00:00:00.30 bitrate=   1.2kbits/s speed=0.017x elapsed=0:00:17.67    \nframe=   20 fps=1.1 q=40.1 size=       0KiB time=00:00:00.30 bitrate=   1.2kbits/s speed=0.0165x elapsed=0:00:18.18    \nframe=   21 fps=1.1 q=37.2 size=       0KiB time=00:00:00.31 bitrate=   1.1kbits/s speed=0.0169x elapsed=0:00:18.70    \nframe=   22 fps=1.1 q=38.8 size=       0KiB time=00:00:00.33 bitrate=   1.1kbits/s speed=0.0173x elapsed=0:00:19.22    \nframe=   22 fps=1.1 q=38.8 size=       0KiB time=00:00:00.33 bitrate=   1.1kbits/s speed=0.0169x elapsed=0:00:19.72    \nframe=   23 fps=1.1 q=40.1 size=       0KiB time=00:00:00.35 bitrate=   1.0kbits/s speed=0.0173x elapsed=0:00:20.25    \nframe=   23 fps=1.1 q=40.1 size=       0KiB time=00:00:00.35 bitrate=   1.0kbits/s speed=0.0168x elapsed=0:00:20.77    \nframe=   24 fps=1.1 q=40.0 size=       0KiB time=00:00:00.36 bitrate=   1.0kbits/s speed=0.0172x elapsed=0:00:21.27    \nframe=   25 fps=1.1 q=36.2 size=       0KiB time=00:00:00.38 bitrate=   0.9kbits/s speed=0.0176x elapsed=0:00:21.80    \nframe=   25 fps=1.1 q=36.2 size=       0KiB time=00:00:00.38 bitrate=   0.9kbits/s speed=0.0172x elapsed=0:00:22.32    \nframe=   26 fps=1.1 q=38.8 size=       0KiB time=00:00:00.40 bitrate=   0.9kbits/s speed=0.0175x elapsed=0:00:22.84    \nframe=   27 fps=1.2 q=39.9 size=       0KiB time=00:00:00.41 bitrate=   0.8kbits/s speed=0.0178x elapsed=0:00:23.39    \nframe=   27 fps=1.1 q=39.9 size=       0KiB time=00:00:00.41 bitrate=   0.8kbits/s speed=0.0174x elapsed=0:00:23.94    \nframe=   27 fps=1.1 q=39.9 size=       0KiB time=00:00:00.41 bitrate=   0.8kbits/s speed=0.017x elapsed=0:00:24.48    \nframe=   27 fps=1.1 q=39.9 size=       0KiB time=00:00:00.41 bitrate=   0.8kbits/s speed=0.0166x elapsed=0:00:25.03    \nframe=   28 fps=1.1 q=39.8 size=       0KiB time=00:00:00.43 bitrate=   0.8kbits/s speed=0.017x elapsed=0:00:25.56    \nframe=   28 fps=1.1 q=39.8 size=       0KiB time=00:00:00.43 bitrate=   0.8kbits/s speed=0.0166x elapsed=0:00:26.13    \nframe=   28 fps=1.0 q=39.8 size=       0KiB time=00:00:00.43 bitrate=   0.8kbits/s speed=0.0162x elapsed=0:00:26.67    \nframe=   28 fps=1.0 q=39.8 size=       0KiB time=00:00:00.43 bitrate=   0.8kbits/s speed=0.0159x elapsed=0:00:27.20    \nframe=   28 fps=1.0 q=39.8 size=       0KiB time=00:00:00.43 bitrate=   0.8kbits/s speed=0.0156x elapsed=0:00:27.73    \nframe=   29 fps=1.0 q=39.7 size=       0KiB time=00:00:00.45 bitrate=   0.8kbits/s speed=0.0159x elapsed=0:00:28.26    \nframe=   29 fps=1.0 q=39.7 size=       0KiB time=00:00:00.45 bitrate=   0.8kbits/s speed=0.0156x elapsed=0:00:28.78    \nframe=   30 fps=1.0 q=36.1 size=       0KiB time=00:00:00.46 bitrate=   0.8kbits/s speed=0.0159x elapsed=0:00:29.34    \nframe=   30 fps=1.0 q=36.1 size=       0KiB time=00:00:00.46 bitrate=   0.8kbits/s speed=0.0156x elapsed=0:00:29.87    \nframe=   31 fps=1.0 q=38.1 size=       0KiB time=00:00:00.48 bitrate=   0.7kbits/s speed=0.0159x elapsed=0:00:30.40    \nframe=   31 fps=1.0 q=38.1 size=       0KiB time=00:00:00.48 bitrate=   0.7kbits/s speed=0.0156x elapsed=0:00:30.95    \nframe=   32 fps=1.0 q=39.9 size=       0KiB time=00:00:00.50 bitrate=   0.7kbits/s speed=0.0159x elapsed=0:00:31.47    \nframe=   32 fps=1.0 q=39.9 size=       0KiB time=00:00:00.50 bitrate=   0.7kbits/s speed=0.0156x elapsed=0:00:31.98    \nframe=   32 fps=1.0 q=39.9 size=       0KiB time=00:00:00.50 bitrate=   0.7kbits/s speed=0.0154x elapsed=0:00:32.51    \nframe=   33 fps=1.0 q=39.8 size=       0KiB time=00:00:00.51 bitrate=   0.7kbits/s speed=0.0156x elapsed=0:00:33.04    \nframe=   33 fps=1.0 q=39.8 size=       0KiB time=00:00:00.51 bitrate=   0.7kbits/s speed=0.0154x elapsed=0:00:33.58    \nframe=   34 fps=1.0 q=39.8 size=       0KiB time=00:00:00.53 bitrate=   0.7kbits/s speed=0.0156x elapsed=0:00:34.12    \nframe=   35 fps=1.0 q=36.3 size=       0KiB time=00:00:00.55 bitrate=   0.6kbits/s speed=0.0159x elapsed=0:00:34.65    \nframe=   35 fps=1.0 q=36.3 size=       0KiB time=00:00:00.55 bitrate=   0.6kbits/s speed=0.0156x elapsed=0:00:35.21    \nframe=   36 fps=1.0 q=38.2 size=       0KiB time=00:00:00.56 bitrate=   0.6kbits/s speed=0.0159x elapsed=0:00:35.73    \nframe=   36 fps=1.0 q=38.2 size=       0KiB time=00:00:00.56 bitrate=   0.6kbits/s speed=0.0156x elapsed=0:00:36.24    \nframe=   36 fps=1.0 q=38.2 size=       0KiB time=00:00:00.56 bitrate=   0.6kbits/s speed=0.0154x elapsed=0:00:36.76    \nframe=   37 fps=1.0 q=39.6 size=       0KiB time=00:00:00.58 bitrate=   0.6kbits/s speed=0.0156x elapsed=0:00:37.28    \nframe=   37 fps=1.0 q=39.6 size=       0KiB time=00:00:00.58 bitrate=   0.6kbits/s speed=0.0154x elapsed=0:00:37.84    \nframe=   37 fps=1.0 q=39.6 size=       0KiB time=00:00:00.58 bitrate=   0.6kbits/s speed=0.0152x elapsed=0:00:38.35    \nframe=   38 fps=1.0 q=40.0 size=       0KiB time=00:00:00.60 bitrate=   0.6kbits/s speed=0.0154x elapsed=0:00:38.88    \nframe=   39 fps=1.0 q=36.6 size=       0KiB time=00:00:00.61 bitrate=   0.6kbits/s speed=0.0156x elapsed=0:00:39.40    \nframe=   39 fps=1.0 q=36.6 size=       0KiB time=00:00:00.61 bitrate=   0.6kbits/s speed=0.0154x elapsed=0:00:39.92    \nframe=   40 fps=1.0 q=38.3 size=       0KiB time=00:00:00.63 bitrate=   0.6kbits/s speed=0.0157x elapsed=0:00:40.44    \nframe=   40 fps=1.0 q=38.3 size=       0KiB time=00:00:00.63 bitrate=   0.6kbits/s speed=0.0155x elapsed=0:00:40.97    \nframe=   40 fps=1.0 q=38.3 size=       0KiB time=00:00:00.63 bitrate=   0.6kbits/s speed=0.0153x elapsed=0:00:41.49    \nframe=   40 fps=1.0 q=38.3 size=       0KiB time=00:00:00.63 bitrate=   0.6kbits/s speed=0.0151x elapsed=0:00:42.01    \nframe=   41 fps=1.0 q=39.9 size=       0KiB time=00:00:00.65 bitrate=   0.5kbits/s speed=0.0153x elapsed=0:00:42.53    \nframe=   42 fps=1.0 q=39.8 size=       0KiB time=00:00:00.66 bitrate=   0.5kbits/s speed=0.0155x elapsed=0:00:43.06    \nframe=   42 fps=1.0 q=39.8 size=       0KiB time=00:00:00.66 bitrate=   0.5kbits/s speed=0.0153x elapsed=0:00:43.60    \nframe=   42 fps=1.0 q=39.8 size=       0KiB time=00:00:00.66 bitrate=   0.5kbits/s speed=0.0151x elapsed=0:00:44.16    \nframe=   43 fps=1.0 q=37.1 size=       0KiB time=00:00:00.68 bitrate=   0.5kbits/s speed=0.0153x elapsed=0:00:44.67    \nframe=   43 fps=1.0 q=37.1 size=       0KiB time=00:00:00.68 bitrate=   0.5kbits/s speed=0.0151x elapsed=0:00:45.20    \nframe=   43 fps=0.9 q=37.1 size=       0KiB time=00:00:00.68 bitrate=   0.5kbits/s speed=0.0149x elapsed=0:00:45.72    \nframe=   44 fps=1.0 q=38.4 size=       0KiB time=00:00:00.70 bitrate=   0.5kbits/s speed=0.0151x elapsed=0:00:46.25    \nframe=   44 fps=0.9 q=38.4 size=       0KiB time=00:00:00.70 bitrate=   0.5kbits/s speed=0.015x elapsed=0:00:46.77    \nframe=   44 fps=0.9 q=38.4 size=       0KiB time=00:00:00.70 bitrate=   0.5kbits/s speed=0.0148x elapsed=0:00:47.29    \nframe=   44 fps=0.9 q=38.4 size=       0KiB time=00:00:00.70 bitrate=   0.5kbits/s speed=0.0146x elapsed=0:00:47.85    \nframe=   45 fps=0.9 q=39.8 size=       0KiB time=00:00:00.71 bitrate=   0.5kbits/s speed=0.0148x elapsed=0:00:48.40    \nframe=   45 fps=0.9 q=39.8 size=       0KiB time=00:00:00.71 bitrate=   0.5kbits/s speed=0.0146x elapsed=0:00:48.92    \nframe=   45 fps=0.9 q=39.8 size=       0KiB time=00:00:00.71 bitrate=   0.5kbits/s speed=0.0145x elapsed=0:00:49.44    \nframe=   45 fps=0.9 q=39.8 size=       0KiB time=00:00:00.71 bitrate=   0.5kbits/s speed=0.0143x elapsed=0:00:49.98    \nframe=   46 fps=0.9 q=36.6 size=       0KiB time=00:00:00.73 bitrate=   0.5kbits/s speed=0.0145x elapsed=0:00:50.52    \nframe=   46 fps=0.9 q=36.6 size=       0KiB time=00:00:00.73 bitrate=   0.5kbits/s speed=0.0144x elapsed=0:00:51.05    \nframe=   47 fps=0.9 q=38.3 size=       0KiB time=00:00:00.75 bitrate=   0.5kbits/s speed=0.0145x elapsed=0:00:51.58    \nframe=   47 fps=0.9 q=38.3 size=       0KiB time=00:00:00.75 bitrate=   0.5kbits/s speed=0.0144x elapsed=0:00:52.12    \nframe=   47 fps=0.9 q=38.3 size=       0KiB time=00:00:00.75 bitrate=   0.5kbits/s speed=0.0142x elapsed=0:00:52.65    \nframe=   48 fps=0.9 q=39.7 size=       0KiB time=00:00:00.76 bitrate=   0.5kbits/s speed=0.0144x elapsed=0:00:53.17    \nframe=   49 fps=0.9 q=39.9 size=       0KiB time=00:00:00.78 bitrate=   0.4kbits/s speed=0.0146x elapsed=0:00:53.68    \nframe=   49 fps=0.9 q=39.9 size=       0KiB time=00:00:00.78 bitrate=   0.4kbits/s speed=0.0145x elapsed=0:00:54.20    \nframe=   50 fps=0.9 q=36.2 size=       0KiB time=00:00:00.80 bitrate=   0.4kbits/s speed=0.0146x elapsed=0:00:54.71    \nframe=   51 fps=0.9 q=38.1 size=       0KiB time=00:00:00.81 bitrate=   0.4kbits/s speed=0.0148x elapsed=0:00:55.24    \nframe=   51 fps=0.9 q=38.1 size=       0KiB time=00:00:00.81 bitrate=   0.4kbits/s speed=0.0146x elapsed=0:00:55.76    \nframe=   52 fps=0.9 q=40.0 size=       0KiB time=00:00:00.83 bitrate=   0.4kbits/s speed=0.0148x elapsed=0:00:56.28    \nframe=   53 fps=0.9 q=40.0 size=       0KiB time=00:00:00.85 bitrate=   0.4kbits/s speed=0.015x elapsed=0:00:56.80    \nframe=   54 fps=0.9 q=35.7 size=       0KiB time=00:00:00.86 bitrate=   0.4kbits/s speed=0.0151x elapsed=0:00:57.30    \nframe=   54 fps=0.9 q=35.7 size=       0KiB time=00:00:00.86 bitrate=   0.4kbits/s speed=0.015x elapsed=0:00:57.83    \nframe=   55 fps=0.9 q=38.2 size=       0KiB time=00:00:00.88 bitrate=   0.4kbits/s speed=0.0151x elapsed=0:00:58.35    \nframe=   55 fps=0.9 q=38.2 size=       0KiB time=00:00:00.88 bitrate=   0.4kbits/s speed=0.015x elapsed=0:00:58.87    \nframe=   56 fps=0.9 q=40.0 size=       0KiB time=00:00:00.90 bitrate=   0.4kbits/s speed=0.0152x elapsed=0:00:59.38    \nframe=   56 fps=0.9 q=40.0 size=       0KiB time=00:00:00.90 bitrate=   0.4kbits/s speed=0.015x elapsed=0:00:59.90    \nframe=   57 fps=0.9 q=40.0 size=       0KiB time=00:00:00.91 bitrate=   0.4kbits/s speed=0.0152x elapsed=0:01:00.43    \nframe=   58 fps=1.0 q=36.6 size=       0KiB time=00:00:00.93 bitrate=   0.4kbits/s speed=0.0153x elapsed=0:01:00.94    \nframe=   59 fps=1.0 q=38.0 size=       0KiB time=00:00:00.95 bitrate=   0.4kbits/s speed=0.0155x elapsed=0:01:01.46    \nframe=   60 fps=1.0 q=40.5 size=       0KiB time=00:00:00.96 bitrate=   0.4kbits/s speed=0.0156x elapsed=0:01:01.98    \nframe=   60 fps=1.0 q=40.5 size=       0KiB time=00:00:00.96 bitrate=   0.4kbits/s speed=0.0155x elapsed=0:01:02.49    \nframe=   61 fps=1.0 q=40.4 size=       0KiB time=00:00:00.98 bitrate=   0.4kbits/s speed=0.0156x elapsed=0:01:03.02    \nframe=   62 fps=1.0 q=36.0 size=       0KiB time=00:00:01.00 bitrate=   0.4kbits/s speed=0.0157x elapsed=0:01:03.54    \nframe=   63 fps=1.0 q=38.0 size=       0KiB time=00:00:01.01 bitrate=   0.3kbits/s speed=0.0159x elapsed=0:01:04.06    \nframe=   63 fps=1.0 q=38.0 size=       0KiB time=00:00:01.01 bitrate=   0.3kbits/s speed=0.0157x elapsed=0:01:04.58    \nframe=   64 fps=1.0 q=40.5 size=       0KiB time=00:00:01.03 bitrate=   0.3kbits/s speed=0.0159x elapsed=0:01:05.10    \nframe=   64 fps=1.0 q=40.5 size=       0KiB time=00:00:01.03 bitrate=   0.3kbits/s speed=0.0157x elapsed=0:01:05.63    \nframe=   64 fps=1.0 q=40.5 size=       0KiB time=00:00:01.03 bitrate=   0.3kbits/s speed=0.0156x elapsed=0:01:06.16    \nframe=   65 fps=1.0 q=40.5 size=       0KiB time=00:00:01.05 bitrate=   0.3kbits/s speed=0.0157x elapsed=0:01:06.68    \nframe=   65 fps=1.0 q=40.5 size=       0KiB time=00:00:01.05 bitrate=   0.3kbits/s speed=0.0156x elapsed=0:01:07.20    \nframe=   66 fps=1.0 q=36.2 size=       0KiB time=00:00:01.06 bitrate=   0.3kbits/s speed=0.0158x elapsed=0:01:07.72    \nframe=   67 fps=1.0 q=37.8 size=       0KiB time=00:00:01.08 bitrate=   0.3kbits/s speed=0.0159x elapsed=0:01:08.23    \nframe=   67 fps=1.0 q=37.8 size=       0KiB time=00:00:01.08 bitrate=   0.3kbits/s speed=0.0158x elapsed=0:01:08.74    \nframe=   67 fps=1.0 q=37.8 size=       0KiB time=00:00:01.08 bitrate=   0.3kbits/s speed=0.0156x elapsed=0:01:09.26    \nframe=   68 fps=1.0 q=40.1 size=     256KiB time=00:00:01.10 bitrate=1906.8kbits/s speed=0.0158x elapsed=0:01:09.83    \nframe=   69 fps=1.0 q=40.6 size=     256KiB time=00:00:01.11 bitrate=1878.4kbits/s speed=0.0159x elapsed=0:01:10.36    \nframe=   69 fps=1.0 q=40.6 size=     256KiB time=00:00:01.11 bitrate=1878.4kbits/s speed=0.0157x elapsed=0:01:10.91    \nframe=   69 fps=1.0 q=40.6 size=     256KiB time=00:00:01.11 bitrate=1878.4kbits/s speed=0.0156x elapsed=0:01:11.46    \nframe=   70 fps=1.0 q=36.4 size=     256KiB time=00:00:01.13 bitrate=1850.7kbits/s speed=0.0157x elapsed=0:01:11.98    \nframe=   70 fps=1.0 q=36.4 size=     256KiB time=00:00:01.13 bitrate=1850.7kbits/s speed=0.0156x elapsed=0:01:12.52    \nframe=   71 fps=1.0 q=38.1 size=     256KiB time=00:00:01.15 bitrate=1823.9kbits/s speed=0.0157x elapsed=0:01:13.04    \nframe=   72 fps=1.0 q=40.4 size=     256KiB time=00:00:01.16 bitrate=1797.9kbits/s speed=0.0159x elapsed=0:01:13.56    \nframe=   72 fps=1.0 q=40.4 size=     256KiB time=00:00:01.16 bitrate=1797.9kbits/s speed=0.0157x elapsed=0:01:14.09    \nframe=   72 fps=1.0 q=40.4 size=     256KiB time=00:00:01.16 bitrate=1797.9kbits/s speed=0.0156x elapsed=0:01:14.62    \nframe=   72 fps=1.0 q=40.4 size=     256KiB time=00:00:01.16 bitrate=1797.9kbits/s speed=0.0155x elapsed=0:01:15.14    \nframe=   73 fps=1.0 q=40.5 size=     256KiB time=00:00:01.18 bitrate=1772.5kbits/s speed=0.0156x elapsed=0:01:15.69    \nframe=   74 fps=1.0 q=36.0 size=     256KiB time=00:00:01.20 bitrate=1747.9kbits/s speed=0.0157x elapsed=0:01:16.22    \nframe=   74 fps=1.0 q=36.0 size=     256KiB time=00:00:01.20 bitrate=1747.9kbits/s speed=0.0156x elapsed=0:01:16.74    \nframe=   74 fps=1.0 q=36.0 size=     256KiB time=00:00:01.20 bitrate=1747.9kbits/s speed=0.0155x elapsed=0:01:17.26    \nframe=   76 fps=1.0 q=40.5 size=     256KiB time=00:00:01.23 bitrate=1700.7kbits/s speed=0.0159x elapsed=0:01:17.80    \nframe=   76 fps=1.0 q=40.5 size=     256KiB time=00:00:01.23 bitrate=1700.7kbits/s speed=0.0157x elapsed=0:01:18.34    \nframe=   77 fps=1.0 q=40.2 size=     256KiB time=00:00:01.25 bitrate=1678.0kbits/s speed=0.0158x elapsed=0:01:18.86    \nframe=   77 fps=1.0 q=40.2 size=     256KiB time=00:00:01.25 bitrate=1678.0kbits/s speed=0.0157x elapsed=0:01:19.38    \nframe=   78 fps=1.0 q=40.6 size=     256KiB time=00:00:01.26 bitrate=1655.9kbits/s speed=0.0158x elapsed=0:01:19.92    \nframe=   79 fps=1.0 q=36.8 size=     256KiB time=00:00:01.28 bitrate=1634.4kbits/s speed=0.016x elapsed=0:01:20.45    \nframe=   79 fps=1.0 q=36.8 size=     256KiB time=00:00:01.28 bitrate=1634.4kbits/s speed=0.0158x elapsed=0:01:20.97    \nframe=   80 fps=1.0 q=38.8 size=     256KiB time=00:00:01.30 bitrate=1613.5kbits/s speed=0.016x elapsed=0:01:21.50    \nframe=   80 fps=1.0 q=38.8 size=     256KiB time=00:00:01.30 bitrate=1613.5kbits/s speed=0.0158x elapsed=0:01:22.04    \nframe=   81 fps=1.0 q=40.5 size=     256KiB time=00:00:01.31 bitrate=1593.0kbits/s speed=0.0159x elapsed=0:01:22.55    \nframe=   81 fps=1.0 q=40.5 size=     256KiB time=00:00:01.31 bitrate=1593.0kbits/s speed=0.0158x elapsed=0:01:23.08    \nframe=   81 fps=1.0 q=40.5 size=     256KiB time=00:00:01.31 bitrate=1593.0kbits/s speed=0.0158x elapsed=0:01:23.59    \nframe=   82 fps=1.0 q=40.2 size=     256KiB time=00:00:01.33 bitrate=1573.1kbits/s speed=0.0158x elapsed=0:01:24.12    \nframe=   83 fps=1.0 q=36.4 size=     256KiB time=00:00:01.35 bitrate=1553.7kbits/s speed=0.0159x elapsed=0:01:24.65    \nframe=   84 fps=1.0 q=38.5 size=     256KiB time=00:00:01.36 bitrate=1534.8kbits/s speed=0.016x elapsed=0:01:25.18    \nframe=   85 fps=1.0 q=40.5 size=     256KiB time=00:00:01.38 bitrate=1516.3kbits/s speed=0.0161x elapsed=0:01:25.71    \nframe=   85 fps=1.0 q=40.5 size=     256KiB time=00:00:01.38 bitrate=1516.3kbits/s speed=0.016x elapsed=0:01:26.24    \nframe=   85 fps=1.0 q=40.5 size=     256KiB time=00:00:01.38 bitrate=1516.3kbits/s speed=0.0159x elapsed=0:01:26.76    \nframe=   85 fps=1.0 q=40.5 size=     256KiB time=00:00:01.38 bitrate=1516.3kbits/s speed=0.0158x elapsed=0:01:27.28    \nframe=   85 fps=1.0 q=40.5 size=     256KiB time=00:00:01.38 bitrate=1516.3kbits/s speed=0.0157x elapsed=0:01:27.87    \nframe=   86 fps=1.0 q=40.4 size=     256KiB time=00:00:01.40 bitrate=1498.2kbits/s speed=0.0158x elapsed=0:01:28.41    \nframe=   86 fps=1.0 q=40.4 size=     256KiB time=00:00:01.40 bitrate=1498.2kbits/s speed=0.0157x elapsed=0:01:28.96    \nframe=   86 fps=1.0 q=40.4 size=     256KiB time=00:00:01.40 bitrate=1498.2kbits/s speed=0.0156x elapsed=0:01:29.48    \nframe=   87 fps=1.0 q=36.8 size=     256KiB time=00:00:01.41 bitrate=1480.6kbits/s speed=0.0157x elapsed=0:01:30.01    \nframe=   87 fps=1.0 q=36.8 size=     256KiB time=00:00:01.41 bitrate=1480.6kbits/s speed=0.0156x elapsed=0:01:30.58    \nframe=   88 fps=1.0 q=38.8 size=     256KiB time=00:00:01.43 bitrate=1463.4kbits/s speed=0.0157x elapsed=0:01:31.10    \nframe=   88 fps=1.0 q=38.8 size=     256KiB time=00:00:01.43 bitrate=1463.4kbits/s speed=0.0156x elapsed=0:01:31.63    \nframe=   89 fps=1.0 q=40.3 size=     256KiB time=00:00:01.45 bitrate=1446.6kbits/s speed=0.0157x elapsed=0:01:32.21    \nframe=   89 fps=1.0 q=40.3 size=     256KiB time=00:00:01.45 bitrate=1446.6kbits/s speed=0.0156x elapsed=0:01:32.80    \nframe=   90 fps=1.0 q=40.6 size=     256KiB time=00:00:01.46 bitrate=1430.1kbits/s speed=0.0157x elapsed=0:01:33.33    \nframe=   90 fps=1.0 q=40.6 size=     256KiB time=00:00:01.46 bitrate=1430.1kbits/s speed=0.0156x elapsed=0:01:33.87    \nframe=   92 fps=1.0 q=38.9 size=     256KiB time=00:00:01.50 bitrate=1398.3kbits/s speed=0.0159x elapsed=0:01:34.39    \nframe=   92 fps=1.0 q=38.9 size=     256KiB time=00:00:01.50 bitrate=1398.3kbits/s speed=0.0158x elapsed=0:01:34.90    \nframe=   92 fps=1.0 q=38.9 size=     256KiB time=00:00:01.50 bitrate=1398.3kbits/s speed=0.0157x elapsed=0:01:35.41    \nframe=   93 fps=1.0 q=40.0 size=     256KiB time=00:00:01.51 bitrate=1383.0kbits/s speed=0.0158x elapsed=0:01:35.93    \nframe=   94 fps=1.0 q=39.7 size=     256KiB time=00:00:01.53 bitrate=1367.9kbits/s speed=0.0159x elapsed=0:01:36.44    \nframe=   95 fps=1.0 q=36.6 size=     256KiB time=00:00:01.55 bitrate=1353.2kbits/s speed=0.016x elapsed=0:01:36.96    \nframe=   96 fps=1.0 q=38.3 size=     256KiB time=00:00:01.56 bitrate=1338.8kbits/s speed=0.0161x elapsed=0:01:37.50    \nframe=   97 fps=1.0 q=39.8 size=     256KiB time=00:00:01.58 bitrate=1324.7kbits/s speed=0.0162x elapsed=0:01:38.02    \nframe=   98 fps=1.0 q=39.6 size=     256KiB time=00:00:01.60 bitrate=1310.9kbits/s speed=0.0162x elapsed=0:01:38.54    \nframe=   98 fps=1.0 q=39.6 size=     256KiB time=00:00:01.60 bitrate=1310.9kbits/s speed=0.0162x elapsed=0:01:39.07    \nframe=   99 fps=1.0 q=36.6 size=     256KiB time=00:00:01.61 bitrate=1297.4kbits/s speed=0.0162x elapsed=0:01:39.57    \nframe=   99 fps=1.0 q=36.6 size=     256KiB time=00:00:01.61 bitrate=1297.4kbits/s speed=0.0162x elapsed=0:01:40.09    \nframe=  101 fps=1.0 q=36.8 size=     256KiB time=00:00:01.65 bitrate=1271.2kbits/s speed=0.0164x elapsed=0:01:40.60    \nframe=  101 fps=1.0 q=36.8 size=     256KiB time=00:00:01.65 bitrate=1271.2kbits/s speed=0.0163x elapsed=0:01:41.16    \nframe=  102 fps=1.0 q=38.3 size=     256KiB time=00:00:01.66 bitrate=1258.5kbits/s speed=0.0164x elapsed=0:01:41.69    \nframe=  103 fps=1.0 q=39.8 size=     256KiB time=00:00:01.68 bitrate=1246.0kbits/s speed=0.0165x elapsed=0:01:42.21    \nframe=  103 fps=1.0 q=39.8 size=     256KiB time=00:00:01.68 bitrate=1246.0kbits/s speed=0.0164x elapsed=0:01:42.74    \nframe=  103 fps=1.0 q=39.8 size=     256KiB time=00:00:01.68 bitrate=1246.0kbits/s speed=0.0163x elapsed=0:01:43.26    \nframe=  104 fps=1.0 q=39.6 size=     256KiB time=00:00:01.70 bitrate=1233.8kbits/s speed=0.0164x elapsed=0:01:43.77    \nframe=  105 fps=1.0 q=37.0 size=     256KiB time=00:00:01.71 bitrate=1221.8kbits/s speed=0.0165x elapsed=0:01:44.30    \nframe=  106 fps=1.0 q=38.5 size=     256KiB time=00:00:01.73 bitrate=1210.1kbits/s speed=0.0165x elapsed=0:01:44.81    \nframe=  107 fps=1.0 q=39.8 size=     256KiB time=00:00:01.75 bitrate=1198.6kbits/s speed=0.0166x elapsed=0:01:45.32    \nframe=  108 fps=1.0 q=39.8 size=     256KiB time=00:00:01.76 bitrate=1187.3kbits/s speed=0.0167x elapsed=0:01:45.84    \nframe=  108 fps=1.0 q=39.8 size=     256KiB time=00:00:01.76 bitrate=1187.3kbits/s speed=0.0166x elapsed=0:01:46.35    \nframe=  109 fps=1.0 q=36.9 size=     256KiB time=00:00:01.78 bitrate=1176.2kbits/s speed=0.0167x elapsed=0:01:46.87    \nframe=  110 fps=1.0 q=38.2 size=     256KiB time=00:00:01.80 bitrate=1165.3kbits/s speed=0.0168x elapsed=0:01:47.39    \nframe=  110 fps=1.0 q=38.2 size=     256KiB time=00:00:01.80 bitrate=1165.3kbits/s speed=0.0167x elapsed=0:01:47.91    \nframe=  111 fps=1.0 q=39.9 size=     256KiB time=00:00:01.81 bitrate=1154.6kbits/s speed=0.0168x elapsed=0:01:48.43    \nframe=  112 fps=1.0 q=39.8 size=     256KiB time=00:00:01.81 bitrate=1154.6kbits/s speed=0.0167x elapsed=0:01:48.95    \nframe=  112 fps=1.0 q=39.8 size=     256KiB time=00:00:01.83 bitrate=1144.1kbits/s speed=0.0167x elapsed=0:01:49.49    \nframe=  114 fps=1.0 q=38.6 size=     256KiB time=00:00:01.86 bitrate=1123.7kbits/s speed=0.017x elapsed=0:01:50.01    \nframe=  114 fps=1.0 q=38.6 size=     256KiB time=00:00:01.86 bitrate=1123.7kbits/s speed=0.0169x elapsed=0:01:50.52    \nframe=  114 fps=1.0 q=38.6 size=     256KiB time=00:00:01.86 bitrate=1123.7kbits/s speed=0.0168x elapsed=0:01:51.04    \nframe=  115 fps=1.0 q=40.0 size=     256KiB time=00:00:01.88 bitrate=1113.7kbits/s speed=0.0169x elapsed=0:01:51.56    \nframe=  116 fps=1.0 q=40.0 size=     256KiB time=00:00:01.90 bitrate=1103.9kbits/s speed=0.017x elapsed=0:01:52.07    \nframe=  117 fps=1.0 q=37.3 size=     256KiB time=00:00:01.91 bitrate=1094.3kbits/s speed=0.017x elapsed=0:01:52.59    \nframe=  118 fps=1.0 q=38.7 size=     256KiB time=00:00:01.93 bitrate=1084.9kbits/s speed=0.0171x elapsed=0:01:53.10    \nframe=  118 fps=1.0 q=38.7 size=     256KiB time=00:00:01.93 bitrate=1084.9kbits/s speed=0.017x elapsed=0:01:53.63    \nframe=  121 fps=1.1 q=37.3 size=     256KiB time=00:00:01.98 bitrate=1057.6kbits/s speed=0.0174x elapsed=0:01:54.15    \nframe=  122 fps=1.1 q=38.8 size=     256KiB time=00:00:02.00 bitrate=1048.8kbits/s speed=0.0174x elapsed=0:01:54.67    \nframe=  122 fps=1.1 q=38.8 size=     256KiB time=00:00:02.00 bitrate=1048.8kbits/s speed=0.0174x elapsed=0:01:55.21    \nframe=  124 fps=1.1 q=40.1 size=     256KiB time=00:00:02.03 bitrate=1031.6kbits/s speed=0.0176x elapsed=0:01:55.73    \nframe=  124 fps=1.1 q=40.1 size=     256KiB time=00:00:02.03 bitrate=1031.6kbits/s speed=0.0175x elapsed=0:01:56.25    \nframe=  125 fps=1.1 q=37.6 size=     256KiB time=00:00:02.05 bitrate=1023.2kbits/s speed=0.0176x elapsed=0:01:56.77    \nframe=  125 fps=1.1 q=37.6 size=     256KiB time=00:00:02.05 bitrate=1023.2kbits/s speed=0.0175x elapsed=0:01:57.34    \nframe=  125 fps=1.1 q=37.6 size=     256KiB time=00:00:02.05 bitrate=1023.2kbits/s speed=0.0174x elapsed=0:01:57.87    \nframe=  125 fps=1.1 q=37.6 size=     256KiB time=00:00:02.05 bitrate=1023.2kbits/s speed=0.0173x elapsed=0:01:58.41    \nframe=  125 fps=1.1 q=37.6 size=     256KiB time=00:00:02.05 bitrate=1023.2kbits/s speed=0.0172x elapsed=0:01:58.92    \nframe=  126 fps=1.1 q=38.8 size=     256KiB time=00:00:02.06 bitrate=1014.9kbits/s speed=0.0173x elapsed=0:01:59.45    \nframe=  127 fps=1.1 q=40.1 size=     256KiB time=00:00:02.08 bitrate=1006.8kbits/s speed=0.0174x elapsed=0:01:59.98    \nframe=  128 fps=1.1 q=40.2 size=     256KiB time=00:00:02.10 bitrate= 998.8kbits/s speed=0.0174x elapsed=0:02:00.50    \nframe=  128 fps=1.1 q=40.2 size=     256KiB time=00:00:02.10 bitrate= 998.8kbits/s speed=0.0174x elapsed=0:02:01.01    \nframe=  128 fps=1.1 q=40.2 size=     256KiB time=00:00:02.10 bitrate= 998.8kbits/s speed=0.0173x elapsed=0:02:01.53    \nframe=  129 fps=1.1 q=37.5 size=     256KiB time=00:00:02.11 bitrate= 990.9kbits/s speed=0.0173x elapsed=0:02:02.06    \nframe=  129 fps=1.1 q=37.5 size=     256KiB time=00:00:02.11 bitrate= 990.9kbits/s speed=0.0173x elapsed=0:02:02.60    \nframe=  129 fps=1.0 q=37.5 size=     256KiB time=00:00:02.11 bitrate= 990.9kbits/s speed=0.0172x elapsed=0:02:03.13    \nframe=  130 fps=1.1 q=38.7 size=     512KiB time=00:00:02.13 bitrate=1966.2kbits/s speed=0.0173x elapsed=0:02:03.66    \nframe=  130 fps=1.0 q=38.7 size=     512KiB time=00:00:02.13 bitrate=1966.2kbits/s speed=0.0172x elapsed=0:02:04.19    \nframe=  132 fps=1.1 q=40.3 size=     512KiB time=00:00:02.16 bitrate=1936.0kbits/s speed=0.0174x elapsed=0:02:04.69    \nframe=  132 fps=1.1 q=40.3 size=     512KiB time=00:00:02.16 bitrate=1936.0kbits/s speed=0.0173x elapsed=0:02:05.24    \nframe=  132 fps=1.0 q=40.3 size=     512KiB time=00:00:02.16 bitrate=1936.0kbits/s speed=0.0172x elapsed=0:02:05.79    \nframe=  134 fps=1.1 q=38.9 size=     512KiB time=00:00:02.18 bitrate=1921.2kbits/s speed=0.0173x elapsed=0:02:06.35    \nframe=  134 fps=1.1 q=38.9 size=     512KiB time=00:00:02.20 bitrate=1906.7kbits/s speed=0.0173x elapsed=0:02:06.97    \nframe=  134 fps=1.1 q=38.9 size=     512KiB time=00:00:02.20 bitrate=1906.7kbits/s speed=0.0172x elapsed=0:02:07.54    \nframe=  134 fps=1.0 q=38.9 size=     512KiB time=00:00:02.20 bitrate=1906.7kbits/s speed=0.0172x elapsed=0:02:08.14    \nframe=  134 fps=1.0 q=38.9 size=     512KiB time=00:00:02.20 bitrate=1906.7kbits/s speed=0.0171x elapsed=0:02:08.69    \nframe=  134 fps=1.0 q=38.9 size=     512KiB time=00:00:02.20 bitrate=1906.7kbits/s speed=0.017x elapsed=0:02:09.23    \nframe=  136 fps=1.0 q=40.4 size=     512KiB time=00:00:02.23 bitrate=1878.2kbits/s speed=0.0172x elapsed=0:02:09.76    \nframe=  137 fps=1.1 q=37.8 size=     512KiB time=00:00:02.25 bitrate=1864.3kbits/s speed=0.0173x elapsed=0:02:10.32    \nframe=  138 fps=1.1 q=39.0 size=     512KiB time=00:00:02.26 bitrate=1850.6kbits/s speed=0.0173x elapsed=0:02:10.84    \nframe=  138 fps=1.1 q=39.0 size=     512KiB time=00:00:02.26 bitrate=1850.6kbits/s speed=0.0173x elapsed=0:02:11.35    \nframe=  138 fps=1.0 q=39.0 size=     512KiB time=00:00:02.26 bitrate=1850.6kbits/s speed=0.0172x elapsed=0:02:11.88    \nframe=  139 fps=1.0 q=40.3 size=     512KiB time=00:00:02.28 bitrate=1837.1kbits/s speed=0.0172x elapsed=0:02:12.41    \nframe=  140 fps=1.1 q=40.4 size=     512KiB time=00:00:02.30 bitrate=1823.8kbits/s speed=0.0173x elapsed=0:02:12.91    \nframe=  141 fps=1.1 q=37.8 size=     512KiB time=00:00:02.31 bitrate=1810.6kbits/s speed=0.0174x elapsed=0:02:13.47    \nframe=  141 fps=1.1 q=37.8 size=     512KiB time=00:00:02.31 bitrate=1810.6kbits/s speed=0.0173x elapsed=0:02:14.02    \nframe=  141 fps=1.0 q=37.8 size=     512KiB time=00:00:02.31 bitrate=1810.6kbits/s speed=0.0172x elapsed=0:02:14.53    \nframe=  142 fps=1.1 q=39.0 size=     512KiB time=00:00:02.33 bitrate=1797.7kbits/s speed=0.0173x elapsed=0:02:15.04    \nframe=  143 fps=1.1 q=40.4 size=     512KiB time=00:00:02.35 bitrate=1785.0kbits/s speed=0.0173x elapsed=0:02:15.57    \nframe=  144 fps=1.1 q=40.4 size=     512KiB time=00:00:02.36 bitrate=1772.4kbits/s speed=0.0174x elapsed=0:02:16.09    \nframe=  144 fps=1.1 q=40.4 size=     512KiB time=00:00:02.36 bitrate=1772.4kbits/s speed=0.0173x elapsed=0:02:16.61    \nframe=  144 fps=1.1 q=40.4 size=     512KiB time=00:00:02.36 bitrate=1772.4kbits/s speed=0.0173x elapsed=0:02:17.11    \nframe=  146 fps=1.1 q=39.2 size=     512KiB time=00:00:02.40 bitrate=1747.8kbits/s speed=0.0174x elapsed=0:02:17.64    \nframe=  147 fps=1.1 q=40.5 size=     512KiB time=00:00:02.41 bitrate=1735.7kbits/s speed=0.0175x elapsed=0:02:18.16    \nframe=  148 fps=1.1 q=40.5 size=     512KiB time=00:00:02.43 bitrate=1723.8kbits/s speed=0.0175x elapsed=0:02:18.67    \nframe=  149 fps=1.1 q=37.9 size=     512KiB time=00:00:02.45 bitrate=1712.1kbits/s speed=0.0176x elapsed=0:02:19.19    \nframe=  149 fps=1.1 q=37.9 size=     512KiB time=00:00:02.45 bitrate=1712.1kbits/s speed=0.0175x elapsed=0:02:19.71    \nframe=  150 fps=1.1 q=39.3 size=     512KiB time=00:00:02.46 bitrate=1700.5kbits/s speed=0.0176x elapsed=0:02:20.26    \nframe=  151 fps=1.1 q=40.5 size=     512KiB time=00:00:02.48 bitrate=1689.1kbits/s speed=0.0176x elapsed=0:02:20.79    \nframe=  151 fps=1.1 q=40.5 size=     512KiB time=00:00:02.48 bitrate=1689.1kbits/s speed=0.0176x elapsed=0:02:21.31    \nframe=  152 fps=1.1 q=40.5 size=     512KiB time=00:00:02.50 bitrate=1677.9kbits/s speed=0.0176x elapsed=0:02:21.85    \nframe=  152 fps=1.1 q=40.5 size=     512KiB time=00:00:02.50 bitrate=1677.9kbits/s speed=0.0176x elapsed=0:02:22.39    \nframe=  153 fps=1.1 q=37.9 size=     512KiB time=00:00:02.51 bitrate=1666.8kbits/s speed=0.0176x elapsed=0:02:22.93    \nframe=  153 fps=1.1 q=37.9 size=     512KiB time=00:00:02.51 bitrate=1666.8kbits/s speed=0.0175x elapsed=0:02:23.45    \nframe=  153 fps=1.1 q=37.9 size=     512KiB time=00:00:02.51 bitrate=1666.8kbits/s speed=0.0175x elapsed=0:02:23.97    \nframe=  153 fps=1.1 q=37.9 size=     512KiB time=00:00:02.51 bitrate=1666.8kbits/s speed=0.0174x elapsed=0:02:24.53    \nframe=  154 fps=1.1 q=39.2 size=     512KiB time=00:00:02.53 bitrate=1655.8kbits/s speed=0.0175x elapsed=0:02:25.05    \nframe=  156 fps=1.1 q=40.6 size=     512KiB time=00:00:02.56 bitrate=1634.3kbits/s speed=0.0176x elapsed=0:02:25.57    \nframe=  157 fps=1.1 q=38.0 size=     512KiB time=00:00:02.58 bitrate=1623.7kbits/s speed=0.0177x elapsed=0:02:26.09    \nframe=  157 fps=1.1 q=38.0 size=     512KiB time=00:00:02.58 bitrate=1623.7kbits/s speed=0.0176x elapsed=0:02:26.62    \nframe=  157 fps=1.1 q=38.0 size=     512KiB time=00:00:02.58 bitrate=1623.7kbits/s speed=0.0176x elapsed=0:02:27.14    \nframe=  159 fps=1.1 q=40.6 size=     512KiB time=00:00:02.61 bitrate=1603.1kbits/s speed=0.0177x elapsed=0:02:27.65    \nframe=  159 fps=1.1 q=40.6 size=     512KiB time=00:00:02.61 bitrate=1603.1kbits/s speed=0.0177x elapsed=0:02:28.20    \nframe=  160 fps=1.1 q=40.6 size=     512KiB time=00:00:02.63 bitrate=1592.9kbits/s speed=0.0177x elapsed=0:02:28.73    \nframe=  160 fps=1.1 q=40.6 size=     512KiB time=00:00:02.63 bitrate=1592.9kbits/s speed=0.0176x elapsed=0:02:29.25    \nframe=  161 fps=1.1 q=38.1 size=     512KiB time=00:00:02.65 bitrate=1582.9kbits/s speed=0.0177x elapsed=0:02:29.79    \nframe=  161 fps=1.1 q=38.1 size=     512KiB time=00:00:02.65 bitrate=1582.9kbits/s speed=0.0176x elapsed=0:02:30.33    \nframe=  162 fps=1.1 q=39.3 size=     512KiB time=00:00:02.66 bitrate=1573.0kbits/s speed=0.0177x elapsed=0:02:30.85    \nframe=  163 fps=1.1 q=41.4 size=     512KiB time=00:00:02.68 bitrate=1563.2kbits/s speed=0.0177x elapsed=0:02:31.38    \nframe=  164 fps=1.1 q=41.3 size=     512KiB time=00:00:02.70 bitrate=1553.6kbits/s speed=0.0178x elapsed=0:02:31.90    \nframe=  164 fps=1.1 q=41.3 size=     512KiB time=00:00:02.70 bitrate=1553.6kbits/s speed=0.0177x elapsed=0:02:32.42    \nframe=  165 fps=1.1 q=38.0 size=     512KiB time=00:00:02.71 bitrate=1544.0kbits/s speed=0.0178x elapsed=0:02:32.94    \nframe=  166 fps=1.1 q=39.3 size=     512KiB time=00:00:02.73 bitrate=1534.6kbits/s speed=0.0178x elapsed=0:02:33.45    \nframe=  166 fps=1.1 q=39.3 size=     512KiB time=00:00:02.73 bitrate=1534.6kbits/s speed=0.0178x elapsed=0:02:33.98    \nframe=  168 fps=1.1 q=41.3 size=     512KiB time=00:00:02.76 bitrate=1516.1kbits/s speed=0.0179x elapsed=0:02:34.50    \nframe=  169 fps=1.1 q=38.0 size=     512KiB time=00:00:02.78 bitrate=1507.1kbits/s speed=0.018x elapsed=0:02:35.03    \nframe=  169 fps=1.1 q=38.0 size=     512KiB time=00:00:02.78 bitrate=1507.1kbits/s speed=0.0179x elapsed=0:02:35.56    \nframe=  170 fps=1.1 q=39.9 size=     512KiB time=00:00:02.80 bitrate=1498.1kbits/s speed=0.0179x elapsed=0:02:36.07    \nframe=  170 fps=1.1 q=39.9 size=     512KiB time=00:00:02.80 bitrate=1498.1kbits/s speed=0.0179x elapsed=0:02:36.59    \nframe=  172 fps=1.1 q=41.3 size=     512KiB time=00:00:02.83 bitrate=1480.5kbits/s speed=0.018x elapsed=0:02:37.14    \nframe=  173 fps=1.1 q=37.9 size=     512KiB time=00:00:02.85 bitrate=1471.8kbits/s speed=0.0181x elapsed=0:02:37.68    \nframe=  173 fps=1.1 q=37.9 size=     512KiB time=00:00:02.85 bitrate=1471.8kbits/s speed=0.018x elapsed=0:02:38.24    \nframe=  173 fps=1.1 q=37.9 size=     512KiB time=00:00:02.85 bitrate=1471.8kbits/s speed=0.0179x elapsed=0:02:38.79    \nframe=  174 fps=1.1 q=40.0 size=     512KiB time=00:00:02.86 bitrate=1463.3kbits/s speed=0.018x elapsed=0:02:39.30    \nframe=  174 fps=1.1 q=40.0 size=     512KiB time=00:00:02.86 bitrate=1463.3kbits/s speed=0.0179x elapsed=0:02:39.82    \nframe=  175 fps=1.1 q=41.3 size=     512KiB time=00:00:02.88 bitrate=1454.8kbits/s speed=0.018x elapsed=0:02:40.34    \nframe=  176 fps=1.1 q=41.2 size=     512KiB time=00:00:02.90 bitrate=1446.4kbits/s speed=0.018x elapsed=0:02:40.87    \nframe=  177 fps=1.1 q=37.9 size=     512KiB time=00:00:02.91 bitrate=1438.2kbits/s speed=0.0181x elapsed=0:02:41.39    \nframe=  178 fps=1.1 q=39.8 size=     512KiB time=00:00:02.93 bitrate=1430.0kbits/s speed=0.0181x elapsed=0:02:41.92    \nframe=  179 fps=1.1 q=41.2 size=     512KiB time=00:00:02.95 bitrate=1421.9kbits/s speed=0.0182x elapsed=0:02:42.45    \nframe=  179 fps=1.1 q=41.2 size=     512KiB time=00:00:02.95 bitrate=1421.9kbits/s speed=0.0181x elapsed=0:02:43.01    \nframe=  180 fps=1.1 q=41.2 size=     512KiB time=00:00:02.96 bitrate=1413.9kbits/s speed=0.0181x elapsed=0:02:43.52    \nframe=  181 fps=1.1 q=37.6 size=     512KiB time=00:00:02.98 bitrate=1406.0kbits/s speed=0.0182x elapsed=0:02:44.04    \nframe=  183 fps=1.1 q=41.1 size=     512KiB time=00:00:03.01 bitrate=1390.5kbits/s speed=0.0183x elapsed=0:02:44.56    \nframe=  183 fps=1.1 q=41.1 size=     512KiB time=00:00:03.01 bitrate=1390.5kbits/s speed=0.0183x elapsed=0:02:45.09    \nframe=  183 fps=1.1 q=41.1 size=     512KiB time=00:00:03.01 bitrate=1390.5kbits/s speed=0.0182x elapsed=0:02:45.61    \nframe=  184 fps=1.1 q=37.3 size=     512KiB time=00:00:03.03 bitrate=1382.9kbits/s speed=0.0183x elapsed=0:02:46.19    \nframe=  185 fps=1.1 q=39.8 size=     512KiB time=00:00:03.05 bitrate=1375.3kbits/s speed=0.0183x elapsed=0:02:46.73    \nframe=  185 fps=1.1 q=39.8 size=     512KiB time=00:00:03.05 bitrate=1375.3kbits/s speed=0.0182x elapsed=0:02:47.26    \nframe=  185 fps=1.1 q=39.8 size=     512KiB time=00:00:03.05 bitrate=1375.3kbits/s speed=0.0182x elapsed=0:02:47.78    \nframe=  187 fps=1.1 q=41.1 size=     512KiB time=00:00:03.08 bitrate=1360.4kbits/s speed=0.0183x elapsed=0:02:48.30    \nframe=  187 fps=1.1 q=41.1 size=     512KiB time=00:00:03.08 bitrate=1360.4kbits/s speed=0.0183x elapsed=0:02:48.82    \nframe=  187 fps=1.1 q=41.1 size=     512KiB time=00:00:03.08 bitrate=1360.4kbits/s speed=0.0182x elapsed=0:02:49.35    \nframe=  187 fps=1.1 q=41.1 size=     512KiB time=00:00:03.08 bitrate=1360.4kbits/s speed=0.0182x elapsed=0:02:49.87    \nframe=  189 fps=1.1 q=39.6 size=     768KiB time=00:00:03.11 bitrate=2018.8kbits/s speed=0.0183x elapsed=0:02:50.39    \nframe=  190 fps=1.1 q=40.9 size=     768KiB time=00:00:03.13 bitrate=2008.0kbits/s speed=0.0183x elapsed=0:02:50.91    \nframe=  192 fps=1.1 q=37.3 size=     768KiB time=00:00:03.16 bitrate=1986.9kbits/s speed=0.0185x elapsed=0:02:51.43    \nframe=  192 fps=1.1 q=37.3 size=     768KiB time=00:00:03.16 bitrate=1986.9kbits/s speed=0.0184x elapsed=0:02:51.96    \nframe=  192 fps=1.1 q=37.3 size=     768KiB time=00:00:03.16 bitrate=1986.9kbits/s speed=0.0184x elapsed=0:02:52.48    \nframe=  192 fps=1.1 q=37.3 size=     768KiB time=00:00:03.16 bitrate=1986.9kbits/s speed=0.0183x elapsed=0:02:53.00    \nframe=  193 fps=1.1 q=39.2 size=     768KiB time=00:00:03.18 bitrate=1976.5kbits/s speed=0.0183x elapsed=0:02:53.53    \nframe=  193 fps=1.1 q=39.2 size=     768KiB time=00:00:03.18 bitrate=1976.5kbits/s speed=0.0183x elapsed=0:02:54.06    \nframe=  193 fps=1.1 q=39.2 size=     768KiB time=00:00:03.18 bitrate=1976.5kbits/s speed=0.0182x elapsed=0:02:54.63    \nframe=  193 fps=1.1 q=39.2 size=     768KiB time=00:00:03.18 bitrate=1976.5kbits/s speed=0.0182x elapsed=0:02:55.21    \nframe=  195 fps=1.1 q=41.0 size=     768KiB time=00:00:03.20 bitrate=1966.2kbits/s speed=0.0182x elapsed=0:02:55.74    \nframe=  195 fps=1.1 q=41.0 size=     768KiB time=00:00:03.21 bitrate=1956.0kbits/s speed=0.0182x elapsed=0:02:56.27    \nframe=  195 fps=1.1 q=41.0 size=     768KiB time=00:00:03.21 bitrate=1956.0kbits/s speed=0.0182x elapsed=0:02:56.79    \nframe=  196 fps=1.1 q=40.8 size=     768KiB time=00:00:03.23 bitrate=1945.9kbits/s speed=0.0182x elapsed=0:02:57.31    \nframe=  197 fps=1.1 q=37.0 size=     768KiB time=00:00:03.25 bitrate=1935.9kbits/s speed=0.0183x elapsed=0:02:57.82    \nframe=  197 fps=1.1 q=37.0 size=     768KiB time=00:00:03.25 bitrate=1935.9kbits/s speed=0.0182x elapsed=0:02:58.34    \nframe=  198 fps=1.1 q=39.3 size=     768KiB time=00:00:03.26 bitrate=1926.1kbits/s speed=0.0183x elapsed=0:02:58.88    \nframe=  200 fps=1.1 q=40.8 size=     768KiB time=00:00:03.30 bitrate=1906.6kbits/s speed=0.0184x elapsed=0:02:59.40    \nframe=  201 fps=1.1 q=36.8 size=     768KiB time=00:00:03.31 bitrate=1897.0kbits/s speed=0.0184x elapsed=0:02:59.92    \nframe=  202 fps=1.1 q=39.2 size=     768KiB time=00:00:03.33 bitrate=1887.5kbits/s speed=0.0185x elapsed=0:03:00.46    \nframe=  202 fps=1.1 q=39.2 size=     768KiB time=00:00:03.33 bitrate=1887.5kbits/s speed=0.0184x elapsed=0:03:00.96    \nframe=  204 fps=1.1 q=40.7 size=     768KiB time=00:00:03.36 bitrate=1868.9kbits/s speed=0.0185x elapsed=0:03:01.49    \nframe=  205 fps=1.1 q=36.6 size=     768KiB time=00:00:03.38 bitrate=1859.6kbits/s speed=0.0186x elapsed=0:03:02.01    \nframe=  206 fps=1.1 q=39.2 size=     768KiB time=00:00:03.40 bitrate=1850.5kbits/s speed=0.0186x elapsed=0:03:02.53    \nframe=  206 fps=1.1 q=39.2 size=     768KiB time=00:00:03.40 bitrate=1850.5kbits/s speed=0.0186x elapsed=0:03:03.07    \nframe=  208 fps=1.1 q=40.6 size=     768KiB time=00:00:03.43 bitrate=1832.6kbits/s speed=0.0187x elapsed=0:03:03.60    \nframe=  208 fps=1.1 q=40.6 size=     768KiB time=00:00:03.43 bitrate=1832.6kbits/s speed=0.0186x elapsed=0:03:04.13    \nframe=  209 fps=1.1 q=36.5 size=     768KiB time=00:00:03.45 bitrate=1823.7kbits/s speed=0.0187x elapsed=0:03:04.66    \nframe=  210 fps=1.1 q=39.3 size=     768KiB time=00:00:03.46 bitrate=1814.9kbits/s speed=0.0187x elapsed=0:03:05.21    \nframe=  210 fps=1.1 q=39.3 size=     768KiB time=00:00:03.46 bitrate=1814.9kbits/s speed=0.0187x elapsed=0:03:05.73    \nframe=  212 fps=1.1 q=40.7 size=     768KiB time=00:00:03.50 bitrate=1797.7kbits/s speed=0.0188x elapsed=0:03:06.27    \nframe=  213 fps=1.1 q=36.3 size=     768KiB time=00:00:03.51 bitrate=1789.1kbits/s speed=0.0188x elapsed=0:03:06.79    \nframe=  214 fps=1.1 q=39.1 size=     768KiB time=00:00:03.53 bitrate=1780.7kbits/s speed=0.0189x elapsed=0:03:07.32    \nframe=  214 fps=1.1 q=39.1 size=     768KiB time=00:00:03.53 bitrate=1780.7kbits/s speed=0.0188x elapsed=0:03:07.85    \nframe=  215 fps=1.1 q=40.6 size=     768KiB time=00:00:03.55 bitrate=1772.3kbits/s speed=0.0188x elapsed=0:03:08.37    \nframe=  216 fps=1.1 q=40.4 size=     768KiB time=00:00:03.56 bitrate=1764.1kbits/s speed=0.0189x elapsed=0:03:08.89    \nframe=  216 fps=1.1 q=40.4 size=     768KiB time=00:00:03.56 bitrate=1764.1kbits/s speed=0.0188x elapsed=0:03:09.40    \nframe=  216 fps=1.1 q=40.4 size=     768KiB time=00:00:03.56 bitrate=1764.1kbits/s speed=0.0188x elapsed=0:03:09.92    \nframe=  216 fps=1.1 q=40.4 size=     768KiB time=00:00:03.56 bitrate=1764.1kbits/s speed=0.0187x elapsed=0:03:10.44    \nframe=  217 fps=1.1 q=36.3 size=     768KiB time=00:00:03.58 bitrate=1755.9kbits/s speed=0.0188x elapsed=0:03:10.97    \nframe=  217 fps=1.1 q=36.3 size=     768KiB time=00:00:03.58 bitrate=1755.9kbits/s speed=0.0187x elapsed=0:03:11.51    \nframe=  218 fps=1.1 q=38.8 size=     768KiB time=00:00:03.60 bitrate=1747.7kbits/s speed=0.0187x elapsed=0:03:12.07    \nframe=  218 fps=1.1 q=38.8 size=     768KiB time=00:00:03.60 bitrate=1747.7kbits/s speed=0.0187x elapsed=0:03:12.59    \nframe=  218 fps=1.1 q=38.8 size=     768KiB time=00:00:03.60 bitrate=1747.7kbits/s speed=0.0186x elapsed=0:03:13.13    \nframe=  220 fps=1.1 q=40.5 size=     768KiB time=00:00:03.63 bitrate=1731.7kbits/s speed=0.0188x elapsed=0:03:13.66    \nframe=  221 fps=1.1 q=36.0 size=     768KiB time=00:00:03.65 bitrate=1723.8kbits/s speed=0.0188x elapsed=0:03:14.19    \nframe=  221 fps=1.1 q=36.0 size=     768KiB time=00:00:03.65 bitrate=1723.8kbits/s speed=0.0187x elapsed=0:03:14.73    \nframe=  222 fps=1.1 q=38.3 size=     768KiB time=00:00:03.66 bitrate=1715.9kbits/s speed=0.0188x elapsed=0:03:15.24    \nframe=  223 fps=1.1 q=40.5 size=     768KiB time=00:00:03.68 bitrate=1708.2kbits/s speed=0.0188x elapsed=0:03:15.77    \nframe=  224 fps=1.1 q=40.4 size=     768KiB time=00:00:03.70 bitrate=1700.5kbits/s speed=0.0188x elapsed=0:03:16.28    \nframe=  224 fps=1.1 q=40.4 size=     768KiB time=00:00:03.70 bitrate=1700.5kbits/s speed=0.0188x elapsed=0:03:16.81    \nframe=  224 fps=1.1 q=40.4 size=     768KiB time=00:00:03.70 bitrate=1700.5kbits/s speed=0.0188x elapsed=0:03:17.33    \nframe=  225 fps=1.1 q=35.3 size=     768KiB time=00:00:03.71 bitrate=1692.9kbits/s speed=0.0188x elapsed=0:03:17.86    \nframe=  226 fps=1.1 q=38.4 size=     768KiB time=00:00:03.73 bitrate=1685.3kbits/s speed=0.0188x elapsed=0:03:18.39    \nframe=  226 fps=1.1 q=38.4 size=     768KiB time=00:00:03.73 bitrate=1685.3kbits/s speed=0.0188x elapsed=0:03:18.91    \nframe=  227 fps=1.1 q=40.3 size=     768KiB time=00:00:03.75 bitrate=1677.8kbits/s speed=0.0188x elapsed=0:03:19.46    \nframe=  228 fps=1.1 q=40.3 size=     768KiB time=00:00:03.76 bitrate=1670.4kbits/s speed=0.0188x elapsed=0:03:19.99    \nframe=  229 fps=1.1 q=35.5 size=     768KiB time=00:00:03.78 bitrate=1663.0kbits/s speed=0.0189x elapsed=0:03:20.51    \nframe=  229 fps=1.1 q=35.5 size=     768KiB time=00:00:03.78 bitrate=1663.0kbits/s speed=0.0188x elapsed=0:03:21.02    \nframe=  229 fps=1.1 q=35.5 size=     768KiB time=00:00:03.78 bitrate=1663.0kbits/s speed=0.0188x elapsed=0:03:21.55    \nframe=  229 fps=1.1 q=35.5 size=     768KiB time=00:00:03.78 bitrate=1663.0kbits/s speed=0.0187x elapsed=0:03:22.07    \nframe=  231 fps=1.1 q=40.2 size=     768KiB time=00:00:03.81 bitrate=1648.5kbits/s speed=0.0188x elapsed=0:03:22.59    \nframe=  232 fps=1.1 q=40.3 size=     768KiB time=00:00:03.83 bitrate=1641.3kbits/s speed=0.0189x elapsed=0:03:23.11    \nframe=  232 fps=1.1 q=40.3 size=     768KiB time=00:00:03.83 bitrate=1641.3kbits/s speed=0.0188x elapsed=0:03:23.65    \nframe=  232 fps=1.1 q=40.3 size=     768KiB time=00:00:03.83 bitrate=1641.3kbits/s speed=0.0188x elapsed=0:03:24.20    \nframe=  233 fps=1.1 q=36.0 size=     768KiB time=00:00:03.85 bitrate=1634.2kbits/s speed=0.0188x elapsed=0:03:24.74    \nframe=  234 fps=1.1 q=38.2 size=     768KiB time=00:00:03.86 bitrate=1627.2kbits/s speed=0.0188x elapsed=0:03:25.29    \nframe=  235 fps=1.1 q=40.5 size=     768KiB time=00:00:03.88 bitrate=1620.2kbits/s speed=0.0189x elapsed=0:03:25.83    \nframe=  236 fps=1.1 q=40.1 size=     768KiB time=00:00:03.90 bitrate=1613.3kbits/s speed=0.0189x elapsed=0:03:26.34    \nframe=  236 fps=1.1 q=40.1 size=     768KiB time=00:00:03.90 bitrate=1613.3kbits/s speed=0.0189x elapsed=0:03:26.88    \nframe=  238 fps=1.1 q=38.0 size=     768KiB time=00:00:03.93 bitrate=1599.6kbits/s speed=0.019x elapsed=0:03:27.41    \nframe=  238 fps=1.1 q=38.0 size=     768KiB time=00:00:03.93 bitrate=1599.6kbits/s speed=0.0189x elapsed=0:03:27.95    \nframe=  240 fps=1.2 q=40.1 size=     768KiB time=00:00:03.96 bitrate=1586.2kbits/s speed=0.019x elapsed=0:03:28.47    \nframe=  240 fps=1.1 q=40.1 size=     768KiB time=00:00:03.96 bitrate=1586.2kbits/s speed=0.019x elapsed=0:03:29.00    \nframe=  240 fps=1.1 q=40.1 size=     768KiB time=00:00:03.96 bitrate=1586.2kbits/s speed=0.0189x elapsed=0:03:29.53    \nframe=  241 fps=1.1 q=35.4 size=     768KiB time=00:00:03.98 bitrate=1579.5kbits/s speed=0.019x elapsed=0:03:30.06    \nframe=  241 fps=1.1 q=35.4 size=     768KiB time=00:00:03.98 bitrate=1579.5kbits/s speed=0.0189x elapsed=0:03:30.61    \nframe=  242 fps=1.1 q=37.9 size=     768KiB time=00:00:04.00 bitrate=1573.0kbits/s speed=0.0189x elapsed=0:03:31.11    \nframe=  243 fps=1.1 q=39.8 size=     768KiB time=00:00:04.01 bitrate=1566.4kbits/s speed=0.019x elapsed=0:03:31.64    \nframe=  245 fps=1.2 q=35.7 size=     768KiB time=00:00:04.05 bitrate=1553.5kbits/s speed=0.0191x elapsed=0:03:32.17    \nframe=  246 fps=1.2 q=37.5 size=     768KiB time=00:00:04.06 bitrate=1547.2kbits/s speed=0.0191x elapsed=0:03:32.69    \nframe=  247 fps=1.2 q=40.2 size=     768KiB time=00:00:04.08 bitrate=1540.9kbits/s speed=0.0192x elapsed=0:03:33.21    \nframe=  248 fps=1.2 q=40.0 size=     768KiB time=00:00:04.10 bitrate=1534.6kbits/s speed=0.0192x elapsed=0:03:33.73    \nframe=  248 fps=1.2 q=40.0 size=     768KiB time=00:00:04.10 bitrate=1534.6kbits/s speed=0.0191x elapsed=0:03:34.24    \nframe=  248 fps=1.2 q=40.0 size=     768KiB time=00:00:04.10 bitrate=1534.6kbits/s speed=0.0191x elapsed=0:03:34.77    \nframe=  250 fps=1.2 q=37.6 size=     768KiB time=00:00:04.13 bitrate=1522.2kbits/s speed=0.0192x elapsed=0:03:35.30    \nframe=  250 fps=1.2 q=37.6 size=     768KiB time=00:00:04.13 bitrate=1522.2kbits/s speed=0.0192x elapsed=0:03:35.83    \nframe=  251 fps=1.2 q=40.3 size=    1024KiB time=00:00:04.15 bitrate=2021.4kbits/s speed=0.0192x elapsed=0:03:36.35    \nframe=  251 fps=1.2 q=40.3 size=    1024KiB time=00:00:04.15 bitrate=2021.4kbits/s speed=0.0191x elapsed=0:03:36.87    \nframe=  251 fps=1.2 q=40.3 size=    1024KiB time=00:00:04.15 bitrate=2021.4kbits/s speed=0.0191x elapsed=0:03:37.42    \nframe=  251 fps=1.2 q=40.3 size=    1024KiB time=00:00:04.15 bitrate=2021.4kbits/s speed=0.019x elapsed=0:03:37.93    \nframe=  251 fps=1.1 q=40.3 size=    1024KiB time=00:00:04.15 bitrate=2021.4kbits/s speed=0.019x elapsed=0:03:38.47    \nframe=  252 fps=1.2 q=36.5 size=    1024KiB time=00:00:04.16 bitrate=2013.4kbits/s speed=0.019x elapsed=0:03:38.98    \nframe=  253 fps=1.2 q=37.4 size=    1024KiB time=00:00:04.18 bitrate=2005.3kbits/s speed=0.0191x elapsed=0:03:39.51    \nframe=  253 fps=1.1 q=37.4 size=    1024KiB time=00:00:04.18 bitrate=2005.3kbits/s speed=0.019x elapsed=0:03:40.05    \nframe=  255 fps=1.2 q=39.7 size=    1024KiB time=00:00:04.21 bitrate=1989.5kbits/s speed=0.0191x elapsed=0:03:40.57    \nframe=  255 fps=1.2 q=39.7 size=    1024KiB time=00:00:04.21 bitrate=1989.5kbits/s speed=0.0191x elapsed=0:03:41.11    \nframe=  256 fps=1.2 q=36.2 size=    1024KiB time=00:00:04.23 bitrate=1981.6kbits/s speed=0.0191x elapsed=0:03:41.66    \nframe=  257 fps=1.2 q=37.9 size=    1024KiB time=00:00:04.25 bitrate=1973.9kbits/s speed=0.0191x elapsed=0:03:42.20    \nframe=  258 fps=1.2 q=39.7 size=    1024KiB time=00:00:04.25 bitrate=1973.9kbits/s speed=0.0191x elapsed=0:03:42.72    \nframe=  259 fps=1.2 q=39.8 size=    1024KiB time=00:00:04.28 bitrate=1958.5kbits/s speed=0.0192x elapsed=0:03:43.27    \nframe=  260 fps=1.2 q=36.7 size=    1024KiB time=00:00:04.30 bitrate=1950.9kbits/s speed=0.0192x elapsed=0:03:43.80    \nframe=  260 fps=1.2 q=36.7 size=    1024KiB time=00:00:04.30 bitrate=1950.9kbits/s speed=0.0192x elapsed=0:03:44.31    \nframe=  261 fps=1.2 q=37.9 size=    1024KiB time=00:00:04.31 bitrate=1943.4kbits/s speed=0.0192x elapsed=0:03:44.85    \nframe=  263 fps=1.2 q=39.8 size=    1024KiB time=00:00:04.35 bitrate=1928.5kbits/s speed=0.0193x elapsed=0:03:45.36    \nframe=  264 fps=1.2 q=36.6 size=    1024KiB time=00:00:04.36 bitrate=1921.1kbits/s speed=0.0193x elapsed=0:03:45.90    \nframe=  264 fps=1.2 q=36.6 size=    1024KiB time=00:00:04.36 bitrate=1921.1kbits/s speed=0.0193x elapsed=0:03:46.44    \nframe=  265 fps=1.2 q=38.2 size=    1024KiB time=00:00:04.38 bitrate=1913.8kbits/s speed=0.0193x elapsed=0:03:46.96    \nframe=  265 fps=1.2 q=38.2 size=    1024KiB time=00:00:04.38 bitrate=1913.8kbits/s speed=0.0193x elapsed=0:03:47.50    \nframe=  266 fps=1.2 q=39.7 size=    1024KiB time=00:00:04.38 bitrate=1913.8kbits/s speed=0.0192x elapsed=0:03:48.00    \nframe=  267 fps=1.2 q=39.9 size=    1024KiB time=00:00:04.41 bitrate=1899.4kbits/s speed=0.0193x elapsed=0:03:48.53    \nframe=  269 fps=1.2 q=38.4 size=    1024KiB time=00:00:04.45 bitrate=1885.2kbits/s speed=0.0194x elapsed=0:03:49.04    \nframe=  269 fps=1.2 q=38.4 size=    1024KiB time=00:00:04.45 bitrate=1885.2kbits/s speed=0.0194x elapsed=0:03:49.56    \nframe=  270 fps=1.2 q=39.7 size=    1024KiB time=00:00:04.46 bitrate=1878.1kbits/s speed=0.0194x elapsed=0:03:50.08    \nframe=  272 fps=1.2 q=36.7 size=    1024KiB time=00:00:04.50 bitrate=1864.2kbits/s speed=0.0195x elapsed=0:03:50.60    \nframe=  272 fps=1.2 q=36.7 size=    1024KiB time=00:00:04.50 bitrate=1864.2kbits/s speed=0.0195x elapsed=0:03:51.13    \nframe=  273 fps=1.2 q=38.2 size=    1024KiB time=00:00:04.51 bitrate=1857.3kbits/s speed=0.0195x elapsed=0:03:51.65    \nframe=  275 fps=1.2 q=39.9 size=    1024KiB time=00:00:04.55 bitrate=1843.7kbits/s speed=0.0196x elapsed=0:03:52.20    \nframe=  276 fps=1.2 q=36.6 size=    1024KiB time=00:00:04.56 bitrate=1837.0kbits/s speed=0.0196x elapsed=0:03:52.72    \nframe=  277 fps=1.2 q=38.4 size=    1024KiB time=00:00:04.58 bitrate=1830.3kbits/s speed=0.0197x elapsed=0:03:53.24    \nframe=  278 fps=1.2 q=39.9 size=    1024KiB time=00:00:04.60 bitrate=1823.7kbits/s speed=0.0197x elapsed=0:03:53.76    \nframe=  280 fps=1.2 q=37.0 size=    1024KiB time=00:00:04.63 bitrate=1810.6kbits/s speed=0.0198x elapsed=0:03:54.28    \nframe=  281 fps=1.2 q=38.4 size=    1024KiB time=00:00:04.65 bitrate=1804.1kbits/s speed=0.0198x elapsed=0:03:54.79    \nframe=  283 fps=1.2 q=40.0 size=    1024KiB time=00:00:04.68 bitrate=1791.2kbits/s speed=0.0199x elapsed=0:03:55.31    \nframe=  284 fps=1.2 q=37.2 size=    1024KiB time=00:00:04.70 bitrate=1784.9kbits/s speed=0.0199x elapsed=0:03:55.83    \nframe=  284 fps=1.2 q=37.2 size=    1024KiB time=00:00:04.70 bitrate=1784.9kbits/s speed=0.0199x elapsed=0:03:56.36    \nframe=  285 fps=1.2 q=38.7 size=    1024KiB time=00:00:04.71 bitrate=1778.6kbits/s speed=0.0199x elapsed=0:03:56.89    \nframe=  286 fps=1.2 q=40.1 size=    1024KiB time=00:00:04.73 bitrate=1772.3kbits/s speed=0.0199x elapsed=0:03:57.39    \nframe=  287 fps=1.2 q=40.1 size=    1024KiB time=00:00:04.75 bitrate=1766.1kbits/s speed=0.02x elapsed=0:03:57.91    \nframe=  288 fps=1.2 q=37.3 size=    1024KiB time=00:00:04.76 bitrate=1759.9kbits/s speed=0.02x elapsed=0:03:58.44    \nframe=  289 fps=1.2 q=39.0 size=    1024KiB time=00:00:04.78 bitrate=1753.8kbits/s speed=0.02x elapsed=0:03:58.94    \nframe=  289 fps=1.2 q=39.0 size=    1024KiB time=00:00:04.78 bitrate=1753.8kbits/s speed=0.02x elapsed=0:03:59.46    \nframe=  291 fps=1.2 q=40.0 size=    1024KiB time=00:00:04.81 bitrate=1741.7kbits/s speed=0.0201x elapsed=0:03:59.98    \nframe=  292 fps=1.2 q=40.2 size=    1024KiB time=00:00:04.83 bitrate=1735.6kbits/s speed=0.0201x elapsed=0:04:00.49    \nframe=  293 fps=1.2 q=37.5 size=    1024KiB time=00:00:04.85 bitrate=1729.7kbits/s speed=0.0201x elapsed=0:04:01.01    \nframe=  293 fps=1.2 q=37.5 size=    1024KiB time=00:00:04.85 bitrate=1729.7kbits/s speed=0.0201x elapsed=0:04:01.53    \nframe=  295 fps=1.2 q=40.2 size=    1024KiB time=00:00:04.88 bitrate=1717.9kbits/s speed=0.0202x elapsed=0:04:02.05    \nframe=  295 fps=1.2 q=40.2 size=    1024KiB time=00:00:04.88 bitrate=1717.9kbits/s speed=0.0201x elapsed=0:04:02.57    \nframe=  296 fps=1.2 q=40.1 size=    1024KiB time=00:00:04.90 bitrate=1712.0kbits/s speed=0.0202x elapsed=0:04:03.11    \nframe=  296 fps=1.2 q=40.1 size=    1024KiB time=00:00:04.90 bitrate=1712.0kbits/s speed=0.0201x elapsed=0:04:03.62    \nframe=  297 fps=1.2 q=38.0 size=    1024KiB time=00:00:04.91 bitrate=1706.2kbits/s speed=0.0201x elapsed=0:04:04.13    \nframe=  298 fps=1.2 q=38.9 size=    1024KiB time=00:00:04.93 bitrate=1700.5kbits/s speed=0.0202x elapsed=0:04:04.65    \nframe=  298 fps=1.2 q=38.9 size=    1024KiB time=00:00:04.93 bitrate=1700.5kbits/s speed=0.0201x elapsed=0:04:05.16    \nframe=  299 fps=1.2 q=40.2 size=    1024KiB time=00:00:04.95 bitrate=1694.7kbits/s speed=0.0201x elapsed=0:04:05.73    \n[mp4 @ 000002ceedc17a00] Starting second pass: moving the moov atom to the beginning of the file\n[out#0/mp4 @ 000002ceedc17900] video:1219KiB audio:0KiB subtitle:0KiB other streams:0KiB global headers:2KiB muxing overhead: 0.579961%\nframe=  300 fps=1.2 q=40.3 Lsize=    1227KiB time=00:00:04.96 bitrate=2023.0kbits/s speed=0.0202x elapsed=0:04:05.79    \nx265 [info]: frame I:      2, Avg QP:37.79  kb/s: 3143.76 \nx265 [info]: frame P:     74, Avg QP:37.21  kb/s: 3012.34 \nx265 [info]: frame B:    224, Avg QP:39.93  kb/s: 1650.00 \nx265 [info]: Weighted P-Frames: Y:2.7% UV:2.7%\n\nencoded 300 frames in 245.62s (1.22 fps), 1996.01 kb/s, Avg QP:39.25\n",
  "seconds": 246.10153126716614,
  "probe_out": {}
}